<svg xmlns="http://www.w3.org/2000/svg" viewBox="0 0 100 100"><path fill="#ee3e54" d="M13 27a2 2 0 1 0 0 4 2 2 0 1 0 0-4Z"/><path fill="#f1bc19" d="M77 12a1 1 0 1 0 0 2 1 1 0 1 0 0-2Z"/><path fill="#fce0a2" d="M50 13a37 37 0 1 0 0 74 37 37 0 1 0 0-74Z"/><path fill="#f1bc19" d="M83 11a4 4 0 1 0 0 8 4 4 0 1 0 0-8Z"/><path fill="#ee3e54" d="M87 22a2 2 0 1 0 0 4 2 2 0 1 0 0-4Z"/><path fill="#fbcd59" d="M81 74a2 2 0 1 0 0 4 2 2 0 1 0 0-4zM15 59a4 4 0 1 0 0 8 4 4 0 1 0 0-8z"/><path fill="#ee3e54" d="M25 85a2 2 0 1 0 0 4 2 2 0 1 0 0-4Z"/><path fill="#fff" d="M18.5 51a2.5 2.5 0 1 0 0 5 2.5 2.5 0 1 0 0-5Z"/><path fill="#f1bc19" d="M21 66a1 1 0 1 0 0 2 1 1 0 1 0 0-2Z"/><path fill="#fff" d="M80 33a1 1 0 1 0 0 2 1 1 0 1 0 0-2Z"/><path fill="#78a2d2" d="M50 25.6a24.3 24.3 0 1 0 0 48.5 24.3 24.3 0 1 0 0-48.5Z"/><path fill="#472b29" d="M68.2 59.4h-.3a.5.5 0 0 1-.2-.7 20 20 0 0 0 1.5-4.1.5.5 0 0 1 1 .2 20.5 20.5 0 0 1-1.6 4.4l-.4.2zm2.1-7.1a.5.5 0 0 1-.5-.5 19.8 19.8 0 0 0-1.3-9c-.1-.3 0-.6.3-.7.2-.1.5 0 .6.3a20.8 20.8 0 0 1 1.4 9.5c0 .2-.3.4-.5.4zM35.1 36.5l-.3-.1a.5.5 0 0 1 0-.7c3.3-3.7 8-6 12.9-6.5.3 0 .5.2.5.5 0 .2-.1.5-.4.5-4.7.5-9 2.7-12.3 6.2l-.4.1zm1 28.8s-.2 0-.3-.2a20.8 20.8 0 0 1-4-25.5c.2-.2.5-.3.7-.2.3.1.4.5.2.7-4.5 8-3 18 3.8 24.3a.5.5 0 0 1-.4.9zm22.8 3.5a.5.5 0 0 1-.2-1 19.7 19.7 0 0 0 7.7-6.6.5.5 0 0 1 .8.5 21 21 0 0 1-8.3 7z"/><path fill="#fff" d="M46.5 73.5v-17h-6v-6h6v-6.2c-.2-5.6 4.1-11 14-8v5.3H57c-2.7 0-3.6.8-3.6 2.7v6.2h7.2l-1.3 6h-5.9v17"/><path fill="#472b29" d="M54 73.5h-1V56h5.9l1-5h-7v-6.7c0-2.2 1.3-3.2 4.1-3.2h3v-4.4c-4.2-1.2-7.7-1-10 .9a8 8 0 0 0-3 6.7V51h-6v5h6v17.5h-1V57h-6v-7h6v-5.7a9 9 0 0 1 3.3-7.5c1.9-1.5 5.4-2.8 11.4-1l.4.1v6.2h-4c-2.7 0-3.2.8-3.2 2.2V50h7.3l-1.5 7H54v16.5z"/><path fill="#472b29" d="M50 74.8a25 25 0 1 1 0-50 25 25 0 0 1 0 50zm0-48.5a23.6 23.6 0 1 0 0 47.2 23.6 23.6 0 0 0 0-47.2z"/></svg>