<svg xmlns="http://www.w3.org/2000/svg" viewBox="0 0 100 100"><circle cx="13" cy="29" r="2" fill="#ee3e54"/><circle cx="77" cy="13" r="1" fill="#f1bc19"/><circle cx="50" cy="50" r="37" fill="#fce0a2"/><circle cx="83" cy="15" r="4" fill="#f1bc19"/><circle cx="87" cy="24" r="2" fill="#ee3e54"/><circle cx="81" cy="76" r="2" fill="#fbcd59"/><circle cx="15" cy="63" r="4" fill="#fbcd59"/><circle cx="25" cy="87" r="2" fill="#ee3e54"/><circle cx="18.5" cy="53.5" r="2.5" fill="#fff"/><circle cx="21" cy="67" r="1" fill="#f1bc19"/><circle cx="80" cy="34" r="1" fill="#fff"/><path fill="#3231c7" d="M72.3 33.7v32.6a6 6 0 0 1-6 6H33.7a6 6 0 0 1-6-6V33.7a6 6 0 0 1 6-6h32.6a6 6 0 0 1 6 6z"/><path fill="#7228ad" d="M72.3 48v18.3a6 6 0 0 1-6 6H33.7a6 6 0 0 1-6-6V33.7a6 6 0 0 1 6-6H52A49.2 49.2 0 0 1 72.3 48z"/><path fill="#b11e93" d="M70 71a6 6 0 0 1-3.7 1.3H33.7a6 6 0 0 1-6-6V33.7A6 6 0 0 1 29 30a41 41 0 0 1 41 41z"/><path fill="#db1a58" d="M62 71v1.3H33.7a6 6 0 0 1-6-6V38H29a33 33 0 0 1 33 33z"/><path fill="#e4273e" d="M54 71v1.3H33.7a6 6 0 0 1-6-6V46H29a25 25 0 0 1 25 25z"/><path fill="#f47c22" d="M47 71v1.3H33.7a6 6 0 0 1-6-6V53H29c10 0 18 8 18 18z"/><path fill="#ef9922" d="M41 71v1.3h-7.3a6 6 0 0 1-6-6v-7.2L29 59a12 12 0 0 1 12 12z"/><path fill="#472b29" d="M66.3 73H33.7C30 73 27 70 27 66.3V33.7c0-3.7 3-6.7 6.7-6.7h32.6c3.7 0 6.7 3 6.7 6.7v32.6c0 3.7-3 6.7-6.7 6.7zM33.7 28.4c-3 0-5.3 2.4-5.3 5.3v32.6c0 3 2.4 5.3 5.3 5.3h32.6c3 0 5.3-2.4 5.3-5.3V33.7c0-3-2.4-5.3-5.3-5.3H33.7z"/><path fill="#fff" d="m50 65.5-7-.1a9 9 0 0 1-3.5-.7A7 7 0 0 1 37 63a7 7 0 0 1-1.7-2.5c-.4-1-.6-2.1-.7-3.5a155.7 155.7 0 0 1 0-14c0-1.4.3-2.4.7-3.5A7 7 0 0 1 37 37a7 7 0 0 1 2.5-1.7c1-.4 2.1-.6 3.5-.7a151.6 151.6 0 0 1 14 0c1.3.1 2.4.3 3.5.7A7 7 0 0 1 63 37a7 7 0 0 1 1.7 2.5c.4 1 .6 2.2.7 3.5a152.1 152.1 0 0 1 0 14 12 12 0 0 1-.7 3.5 7.2 7.2 0 0 1-4.2 4.2c-1 .4-2.2.6-3.5.7h-7zm-1.3-28H43c-1.3 0-2 .3-2.6.5-.6.2-1 .5-1.5 1a4 4 0 0 0-1 1.5 9 9 0 0 0-.5 2.6 151.9 151.9 0 0 0 .5 16.4c.2.6.5 1 1 1.5l1.5 1c.5.2 1.2.4 2.6.5a149 149 0 0 0 16.4-.5c.6-.3 1-.5 1.5-1s.7-1 1-1.5a9 9 0 0 0 .5-2.6 151.6 151.6 0 0 0-.5-16.4 4 4 0 0 0-1-1.5 4 4 0 0 0-1.6-1c-.4-.2-1.1-.4-2.5-.5h-8.2z"/><path fill="#472b29" d="M50 34.8h7c1.3.2 2.4.4 3.4.8 1 .3 1.7.8 2.4 1.6.8.7 1.3 1.4 1.6 2.4.4 1 .6 2 .7 3.4a152.1 152.1 0 0 1 0 14c0 1.3-.3 2.4-.6 3.4a7 7 0 0 1-4.1 4c-1 .5-2.1.7-3.5.7a154.1 154.1 0 0 1-13.9 0 9 9 0 0 1-3.4-.6c-1-.4-1.7-1-2.5-1.6a6.8 6.8 0 0 1-1.6-2.5c-.4-1-.6-2-.6-3.4a155.2 155.2 0 0 1 0-14 9 9 0 0 1 .6-3.4 6.8 6.8 0 0 1 4-4 10 10 0 0 1 3.5-.7l7-.1m0 28 6.9-.1c1.4 0 2.2-.3 2.7-.5.6-.2 1-.5 1.6-1 .5-.5.8-1 1-1.7a8 8 0 0 0 .5-2.6 150.6 150.6 0 0 0-.5-16.5 4.3 4.3 0 0 0-2.7-2.7c-.4-.1-1.2-.3-2.6-.4l-7-.1h-6.8c-1.4.1-2.1.4-2.7.6a4.4 4.4 0 0 0-2.7 2.7 8 8 0 0 0-.4 2.6 150.3 150.3 0 0 0 .5 16.4c.2.7.5 1.2 1 1.7.5.4 1 .8 1.6 1 .5.2 1.3.4 2.7.5H50m0-28.4h-7c-1.4.2-2.5.4-3.6.8a9 9 0 0 0-2.6 1.7c-.8.8-1.3 1.6-1.7 2.6a8.3 8.3 0 0 0-.7 3.6 156.5 156.5 0 0 0 0 14c0 1.4.3 2.5.7 3.6.4 1 .9 1.8 1.7 2.6.8.8 1.6 1.3 2.6 1.7 1 .4 2.2.7 3.6.7a154.6 154.6 0 0 0 14 0 11 11 0 0 0 3.6-.7 7.5 7.5 0 0 0 4.4-4.4c.3-1 .5-2.1.6-3.5a152.2 152.2 0 0 0 0-14 9 9 0 0 0-2.4-6.2 7.2 7.2 0 0 0-2.6-1.7c-1.1-.4-2.2-.6-3.6-.7l-7-.1zm0 28-6.9-.1c-1.3 0-2-.3-2.5-.5a4 4 0 0 1-1.4-.9c-.5-.4-.7-.8-1-1.4-.1-.5-.4-1.2-.4-2.5a151 151 0 0 1 .4-16.3c.3-.6.5-1 1-1.4.4-.5.8-.7 1.4-1 .5-.1 1.2-.4 2.5-.4l5.6-.1h8.2l2.5.5c.6.3 1 .5 1.4 1 .5.4.7.8 1 1.4.1.5.3 1.2.4 2.5a150 150 0 0 1-.4 16.3 4 4 0 0 1-2.4 2.3c-.4.2-1.2.4-2.5.5h-7z"/><path fill="#fff" d="M58.5 43.3a1.8 1.8 0 0 1 0-3.5 1.7 1.7 0 0 1 1.7 1.7c0 1-.7 1.8-1.7 1.8z"/><path fill="#472b29" d="M58.5 40a1.5 1.5 0 1 1 0 3 1.5 1.5 0 0 1 0-3m0-.5a2 2 0 1 0 0 4 2 2 0 0 0 0-4z"/><path fill="#fff" d="M50 41.5a8.5 8.5 0 1 0 0 17 8.5 8.5 0 0 0 0-17zm0 3a5.5 5.5 0 1 1 0 11 5.5 5.5 0 0 1 0-11z"/><path fill="#472b29" d="M50 58.8a8.8 8.8 0 1 1 0-17.6 8.8 8.8 0 0 1 0 17.6zm0-17a8.3 8.3 0 1 0 0 16.5 8.3 8.3 0 0 0 0-16.5zm0 14a5.8 5.8 0 1 1 0-11.6 5.8 5.8 0 0 1 0 11.6zm0-11a5.3 5.3 0 1 0 0 10.5 5.3 5.3 0 0 0 0-10.5z"/></svg>