<svg xmlns="http://www.w3.org/2000/svg" width="80" height="80" shape-rendering="geometricPrecision" text-rendering="geometricPrecision" image-rendering="optimizeQuality" fill-rule="evenodd" clip-rule="evenodd"><path fill="#4a8cca" d="M33 2c23-2 34 10 32 34-5 16-14 30-25 42a91 91 0 0 1-26-42C11 19 17 7 33 2Z" opacity=".8"/><path fill="#96cbfc" d="M34 4c17-2 27 6 30 23-3 18-11 33-24 47a81 81 0 0 1-24-47c1-12 7-19 18-23Z"/><path fill="#518fcb" d="M36 16c12 0 17 6 14 18-7 7-14 7-21 0-3-8-1-14 7-18Z"/><path fill="#f9fbfd" d="M36 18c12-1 16 5 11 17-7 5-13 3-17-4-1-6 1-10 6-13Z"/></svg>