<svg xmlns="http://www.w3.org/2000/svg" viewBox="0 0 800 600"><g stroke="null"><path d="M56 134a19 15 0 1 0 0 30 19 15 0 1 0 0-30z" fill="#ee3e54"/><path d="M656 24a9 7 0 1 0 0 15 9 7 0 1 0 0-15z" fill="#f1bc19"/><path d="M403 32a347 271 0 1 0 0 542 347 271 0 1 0 0-542z" fill="#fce0a2"/><path d="M713 17a38 29 0 1 0 0 59 38 29 0 1 0 0-59z" fill="#f1bc19"/><path d="M750 98a19 15 0 1 0 0 29 19 15 0 1 0 0-29z" fill="#ee3e54"/><path d="M694 479a19 15 0 1 0 0 29 19 15 0 1 0 0-29zM75 369a38 29 0 1 0 0 59 38 29 0 1 0 0-59z" fill="#fbcd59"/><path d="M168 560a19 15 0 1 0 0 29 19 15 0 1 0 0-29z" fill="#ee3e54"/><path d="M107 310a23 18 0 1 0 0 37 23 18 0 1 0 0-37z" fill="#fff"/><path d="M131 420a9 7 0 1 0 0 15 9 7 0 1 0 0-15z" fill="#f1bc19"/><path d="M685 178a9 7 0 1 0 0 15 9 7 0 1 0 0-15z" fill="#fff"/><path d="M265 459c-34 0-62-22-62-48V210c0-27 28-49 62-49h257c34 0 62 22 62 49v201c0 26-28 48-62 48H265z" fill="#67ba8c"/><path d="M522 167c31 0 56 19 56 43v201c0 24-25 43-56 43H265c-30 0-55-19-55-43V210c0-24 25-43 55-43h257m0-11H265c-38 0-68 24-68 54v201c0 29 30 53 68 53h257c38 0 69-24 69-53V210c0-30-31-54-69-54z" fill="#472b29"/><path d="M554 293c-2 0-4-2-4-4v-25c0-2 2-4 4-4s5 2 5 4v25c0 2-2 4-5 4zm0-46c-2 0-4-2-4-4v-13c0-2 2-4 4-4s5 2 5 4v13c0 2-2 4-5 4z" fill="#472b29"/><path d="M400 338s-104 78-145 115l12 1h257l20-2c-42-38-144-114-144-114z" fill="#3e7bf1"/><path d="M524 456H267l-13-1-4-1 3-2c41-36 145-115 146-115l1-2 2 2c1 0 102 76 144 113l2 2-3 1-21 3zm-265-4 8 1h257l16-2c-40-35-127-101-140-110-13 9-102 76-141 111z" fill="#472b29"/><path d="m371 333 156 121c18 0 34-8 44-19L406 306l-35 27z" fill="#fffef4"/><path d="M526 456 368 333l38-30 168 131-1 2a63 63 0 0 1-46 20h-1zM375 333l153 119c16 0 31-7 40-17L406 308l-31 25z" fill="#472b29"/><path d="M422 321s102 83 148 115c6-7 10-16 10-25V210l-1-9c-41 25-157 120-157 120z" fill="#bebacb"/><path d="m571 438-2-1c-47-31-148-114-149-114l-2-2 2-1c1-1 117-95 158-120l3-2v3l2 9v201c0 9-4 18-11 26l-1 1zM425 321c13 11 101 82 145 112 5-7 8-14 8-22V210l-1-6c-40 26-138 106-152 117z" fill="#472b29"/><path d="m265 454 315-246c-1-15-11-27-25-35L221 434c9 12 25 20 44 20z" fill="#fde751"/><path d="M266 456h-1c-19-1-36-8-46-21l-1-1 1-1 335-262 2 1c16 8 26 21 26 36v1L266 456zm-42-21c9 10 24 17 40 17l314-245c-1-12-10-24-23-31L224 435z" fill="#472b29"/><path d="M308 232v18h32c-5 11-16 18-32 18-20 0-36-12-36-27 0-16 16-28 36-28 8 0 16 2 23 6l16-12c-10-8-24-12-39-12-33 0-59 20-59 46 0 25 26 46 59 46 51 0 60-37 55-55h-55z" fill="#fff"/><path d="M308 288c-34 0-62-21-62-47s28-48 62-48c15 0 29 4 41 12l2 1-20 16-2-1c-6-4-14-6-21-6-19 0-34 11-34 26 0 14 15 25 34 25 13 0 23-5 28-14h-31v-21h60v1c3 12 1 29-12 41-10 10-26 15-45 15zm0-92c-32 0-57 20-57 45s25 44 57 44c18 0 32-5 42-14 11-11 13-26 11-37h-51v14h33l-1 3c-5 12-18 19-34 19-21 0-38-13-38-29 0-17 17-30 38-30 8 0 16 2 22 6l14-10c-10-7-23-11-36-11z" fill="#472b29"/><path d="M520 109c-60 0-107 37-107 83 0 57 82 78 99 167 2 5 2 9 8 9 5 0 6-4 7-9 18-89 100-110 100-167 0-46-48-83-107-83z" fill="#ea4989"/><path d="M520 372c-10 0-11-7-12-11v-2c-9-45-36-73-59-97-22-22-41-41-41-70 0-48 50-87 112-87s111 39 111 87c0 29-19 48-40 70-24 24-50 52-60 97v2c-1 4-2 11-11 11zm0-260c-57 0-103 36-103 80 0 26 18 45 39 66 24 25 52 53 61 100v2l2 4h1l2-4v-2c10-47 37-75 61-100 21-21 39-40 39-66 0-44-46-80-102-80z" fill="#472b29"/><path d="M557 192c0 17-17 30-37 30-21 0-38-13-38-30 0-16 17-29 38-29 20 0 37 13 37 29z" fill="#fffef4"/><path d="M520 225c-24 0-43-14-43-33s19-33 43-33 42 15 42 33-19 33-42 33zm0-58c-18 0-33 11-33 25s15 26 33 26 32-11 32-26-14-25-32-25zm8 123-2-1c-2 0-3-3-2-4 13-20 39-46 49-57l5-5c8-9 12-20 12-31 0-2 2-3 5-3s5 1 5 3a53 53 0 0 1-19 40c-11 11-36 37-49 56l-4 2zm64-110-4-2-8-14-12-12c-2-1-2-3 0-5h7c5 4 10 9 13 14 4 4 7 9 9 15 0 2-1 4-4 4h-1zm-38-36-2-1c-10-4-21-6-32-6-3 0-5-1-5-3s2-4 5-4c12 0 25 2 36 7 3 1 4 3 2 5l-4 2z" fill="#472b29"/></g><g stroke="null"><path fill="#00732f" d="M416 375h354v226H416z"/><path fill="#fff" d="M416 450h354v151H416z"/><path d="M416 526h354v75H416z"/><path fill="red" d="M416 375h89v226h-89z"/></g></svg>