<svg width="800" height="600" xmlns="http://www.w3.org/2000/svg">

 <g>
  <title>Layer 1</title>
  <g stroke="null">
   <path stroke="null" d="m65.56467,124.84611a18.56409,15.23077 0 1 0 0,30.46154a18.56409,15.23077 0 1 0 0,-30.46154z" fill="#ee3e54"/>
   <path stroke="null" d="m659.61539,10.61533a9.28204,7.61539 0 1 0 0,15.23077a9.28204,7.61539 0 1 0 0,-15.23077z" fill="#f1bc19"/>
   <path stroke="null" d="m409.00024,18.23071a343.43557,281.76926 0 1 0 0,563.53851a343.43557,281.76926 0 1 0 0,-563.53851z" fill="#fce0a2"/>
   <path stroke="null" d="m715.30764,2.99994a37.12817,30.46154 0 1 0 0,60.92308a37.12817,30.46154 0 1 0 0,-60.92308z" fill="#f1bc19"/>
   <path stroke="null" d="m752.43581,86.76918a18.56409,15.23077 0 1 0 0,30.46154a18.56409,15.23077 0 1 0 0,-30.46154z" fill="#ee3e54"/>
   <path stroke="null" d="m696.74356,482.76922a18.56409,15.23077 0 1 0 0,30.46154a18.56409,15.23077 0 1 0 0,-30.46154zm-612.61481,-114.23078a37.12817,30.46154 0 1 0 0,60.92308a37.12817,30.46154 0 1 0 0,-60.92308z" fill="#fbcd59"/>
   <path stroke="null" d="m176.94918,566.53846a18.56409,15.23077 0 1 0 0,30.46154a18.56409,15.23077 0 1 0 0,-30.46154z" fill="#ee3e54"/>
   <path stroke="null" d="m116.6159,307.61536a23.20511,19.03846 0 1 0 0,38.07693a23.20511,19.03846 0 1 0 0,-38.07693z" fill="#fff"/>
   <path stroke="null" d="m139.82101,421.84614a9.28204,7.61539 0 1 0 0,15.23077a9.28204,7.61539 0 1 0 0,-15.23077z" fill="#f1bc19"/>
   <path stroke="null" d="m687.46151,170.53842a9.28204,7.61539 0 1 0 0,15.23077a9.28204,7.61539 0 1 0 0,-15.23077z" fill="#fff"/>
   <path stroke="null" d="m272.59134,462.20768c-33.8052,0 -61.29861,-22.56439 -61.29861,-50.292l0,-208.59302c0,-27.73523 27.49341,-50.292 61.29861,-50.292l254.24443,0c33.8052,0 61.29861,22.56439 61.29861,50.292l0,208.59302c0,27.73523 -27.50269,50.292 -61.29861,50.292l-254.24443,0z" fill="#67ba8c"/>
   <path stroke="null" d="m526.84505,158.3538c30.22233,0 54.80118,20.17316 54.80118,44.96885l0,208.59302c0,24.79569 -24.58813,44.96885 -54.80118,44.96885l-254.25371,0c-30.22233,0 -54.80118,-20.17316 -54.80118,-44.96885l0,-208.60064c0,-24.79569 24.58813,-44.96885 54.80118,-44.96885l254.25371,0m0,-10.65392l-254.25371,0c-37.28596,0 -67.79604,25.03177 -67.79604,55.62277l0,208.59302c0,30.59862 30.51007,55.63039 67.79604,55.63039l254.24443,0c37.29525,0 67.80532,-25.03177 67.80532,-55.62277l0,-208.60064c0,-30.591 -30.51007,-55.62277 -67.79604,-55.62277l0,0z" fill="#472b29"/>
   <path stroke="null" d="m558.73815,289.74966c-2.56184,0 -4.64102,-1.70585 -4.64102,-3.80769l0,-26.928c0,-2.10185 2.07918,-3.80769 4.64102,-3.80769s4.64102,1.70585 4.64102,3.80769l0,26.928c0,2.10946 -2.07918,3.80769 -4.64102,3.80769z" fill="#472b29"/>
   <g stroke="null">
    <path stroke="null" d="m558.73815,241.97073c-2.56184,0 -4.64102,-1.70585 -4.64102,-3.80769l0,-13.90569c0,-2.10185 2.07918,-3.80769 4.64102,-3.80769s4.64102,1.70585 4.64102,3.80769l0,13.90569c0,2.10185 -2.07918,3.80769 -4.64102,3.80769z" fill="#472b29"/>
   </g>
   <g stroke="null">
    <path stroke="null" d="m406.24347,336.34059c0,0 -103.29985,81.4237 -143.90879,119.62247c4.04697,0.78438 8.25174,1.23369 12.58645,1.23369l254.16089,0c6.78517,0 13.26404,-1.05854 19.2788,-2.90908c-41.77847,-38.86131 -142.11735,-117.94709 -142.11735,-117.94709z" fill="#3e7bf1"/>
    <path stroke="null" d="m529.0913,459.10822l-254.17017,0c-4.27902,0 -8.69727,-0.43408 -13.11553,-1.287l-3.74995,-0.72346l2.52472,-2.38362c40.20053,-37.83323 143.00843,-118.92947 144.04802,-119.75193l1.60579,-1.26415l1.60579,1.26415c1.00246,0.792 100.8958,79.58839 142.25658,118.06893l2.22769,2.07138l-3.15589,0.96715c-6.54384,2.01808 -13.30117,3.03854 -20.07706,3.03854zm-262.35693,-4.36362c2.76605,0.36554 5.50425,0.54831 8.18676,0.54831l254.16089,0c5.11441,0 10.22881,-0.63208 15.23183,-1.881c-39.50437,-36.28731 -125.25188,-104.2927 -138.07038,-114.42878c-12.9763,10.26554 -100.6916,79.83208 -139.5091,115.76147z" fill="#472b29"/>
   </g>
   <g stroke="null">
    <path stroke="null" d="m377.6455,331.09359l153.59924,126.0194c18.35988,-0.58638 34.43638,-8.52162 43.93191,-20.36354l-163.15046,-133.86324l-34.38069,28.20739z" fill="#fffef4"/>
    <path stroke="null" d="m530.31653,459.04729l-155.9476,-127.9537l37.65725,-30.90323l166.13928,136.30778l-1.03959,1.29462c-10.20096,12.69485 -27.30777,20.62246 -45.78832,21.21646l-1.02102,0.03808zm-149.38519,-127.9537l151.23232,124.07747c15.9744,-0.76915 30.74212,-7.48592 40.02417,-18.19316l-160.16164,-131.40347l-31.09484,25.51916z" fill="#472b29"/>
   </g>
   <g stroke="null">
    <path stroke="null" d="m427.42509,318.96228c0,0 100.78442,86.0767 146.87904,118.83809c6.2561,-7.34123 9.95963,-16.25123 9.95963,-25.86946l0,-208.52448c0,-3.18323 -0.41769,-6.29031 -1.17882,-9.29077c-40.32119,26.34162 -155.65985,124.84663 -155.65985,124.84663z" fill="#bebacb"/>
    <path stroke="null" d="m574.72183,440.61806l-1.94923,-1.386c-45.6398,-32.44154 -146.01581,-118.09178 -147.03684,-118.95232l-1.54082,-1.31746l1.54082,-1.31746c1.16954,-0.98238 115.92343,-98.89339 155.91047,-125.02178l2.94241,-1.92669l0.77041,3.03092c0.80754,3.21369 1.22523,6.47308 1.22523,9.67915l0,208.5321c0,9.67154 -3.59215,18.98516 -10.37732,26.95846l-1.48513,1.72108zm-144.08515,-121.65578c12.70712,10.81385 100.06042,84.94201 143.19407,115.9747c5.31861,-6.91477 8.11251,-14.82716 8.11251,-23.00608l0,-208.5321c0,-1.90385 -0.16708,-3.83815 -0.47338,-5.75723c-39.48581,26.80616 -137.31854,109.82147 -150.83319,121.3207z" fill="#472b29"/>
   </g>
   <g stroke="null">
    <path stroke="null" d="m272.26647,457.09014l311.86735,-255.86933c-0.88179,-15.00231 -10.6465,-28.09316 -25.11721,-35.79993l-330.38502,271.05441c9.38414,11.87239 25.34926,19.89139 43.63488,20.61485z" fill="#fde751"/>
    <path stroke="null" d="m273.17611,459.03206l-1.03031,-0.03808c-18.41557,-0.73108 -35.41099,-8.75769 -45.46344,-21.483l-1.02102,-1.29462l1.32733,-1.089l331.71235,-272.14341l1.56867,0.83769c15.51029,8.25508 25.29357,22.20646 26.17536,37.30777l0.04641,0.83769l-313.31535,257.06495zm-41.5557,-22.32069c9.15209,10.73008 23.81772,17.54585 39.73642,18.42923l310.3915,-254.65849c-1.07672,-13.05277 -9.38414,-25.08508 -22.45326,-32.60146l-327.67466,268.83072z" fill="#472b29"/>
   </g>
   <g stroke="null">
    <path stroke="null" d="m314.55546,226.70189l0,18.26169l31.72602,0c-4.17692,11.06515 -15.42675,18.96992 -31.72602,18.96992c-19.39947,0 -35.12325,-12.90046 -35.12325,-28.81662c0,-15.95423 15.72378,-28.84708 35.12325,-28.84708c8.72512,0 16.71696,2.65015 22.83382,6.96046l16.38281,-13.44116c-10.3402,-7.73723 -24.07762,-12.45877 -39.21663,-12.45877c-32.18084,0 -58.24482,21.41446 -58.24482,47.78654c0,26.37208 26.06398,47.78654 58.24482,47.78654c50.9677,0 59.69282,-37.50577 54.894,-56.13301l-54.894,-0.06854z" fill="#fff"/>
    <path stroke="null" d="m314.55546,284.80728c-33.39679,0 -60.56533,-22.29023 -60.56533,-49.68277s27.16854,-49.69039 60.56533,-49.69039c15.13901,0 29.619,4.59969 40.78529,12.95377l1.79143,1.34792l-19.61296,16.09131l-1.63364,-1.14992c-5.95907,-4.18846 -13.53322,-6.49592 -21.33013,-6.49592c-18.08142,0 -32.80274,12.08562 -32.80274,26.94323c0,14.83477 14.71204,26.90516 32.80274,26.90516c13.20835,0 23.6228,-5.61254 28.4309,-15.16223l-30.75141,0l0,-22.06177l59.09876,0.06854l0.38985,1.50785c3.10948,12.07039 0.63118,29.92085 -11.89958,42.60808c-10.38661,10.494 -25.61844,15.81716 -45.26852,15.81716zm0,-95.57309c-30.83495,0 -55.92431,20.58439 -55.92431,45.8827s25.08936,45.87508 55.92431,45.87508c18.18352,0 32.20869,-4.851 41.65781,-14.42354c11.05491,-11.19462 13.62604,-26.79093 11.31481,-37.90939l-50.65211,-0.06854l0,14.44639l32.56141,0l-0.93749,2.46738c-4.8081,12.71769 -17.49665,20.31023 -33.94443,20.31023c-20.64326,0 -37.44376,-13.78385 -37.44376,-30.71285c0,-16.95946 16.8005,-30.75093 37.44376,-30.75093c8.18676,0 16.16004,2.22369 22.67603,6.29792l13.15265,-10.78339c-10.04317,-6.86146 -22.66675,-10.63108 -35.82868,-10.63108z" fill="#472b29"/>
   </g>
   <g stroke="null">
    <path stroke="null" d="m524.32034,98.27603c-58.49543,0 -105.89882,38.89177 -105.89882,86.88393c0,59.19439 81.16218,80.77639 98.82591,172.48086c1.16026,5.90192 1.24379,9.97615 7.07292,9.97615c5.82912,0 5.91266,-4.07423 7.07292,-9.97615c17.66373,-91.70447 98.82591,-113.29409 98.82591,-172.48086c0,-47.99216 -47.40339,-86.88393 -105.89882,-86.88393z" fill="#ea4989"/>
    <path stroke="null" d="m524.32034,371.42467c-9.22635,0 -10.4423,-6.62539 -11.33337,-11.46115l-0.31559,-1.72108c-9.10568,-47.2687 -35.40171,-75.51416 -58.59753,-100.4317c-21.61788,-23.23454 -40.29335,-43.29347 -40.29335,-72.65078c0,-50.00262 49.59395,-90.69162 110.53984,-90.69162s110.53984,40.689 110.53984,90.69162c0,29.35731 -18.67547,49.41624 -40.29335,72.64316c-23.19582,24.92516 -49.48257,53.17062 -58.58825,100.4317l-0.32487,1.72869c-0.88179,4.83577 -2.09774,11.46115 -11.33337,11.46115zm0,-269.34095c-55.84077,0 -101.2578,37.2697 -101.2578,83.07624c0,26.79093 17.78439,45.89031 38.39053,68.02824c23.86413,25.641 50.912,54.70893 60.38897,103.86624l0.33415,1.782c0.34344,1.86577 0.80754,4.42454 1.40159,4.93477l1.55938,-0.04569c0.53836,-0.47215 1.00246,-3.02331 1.3459,-4.90431l0.34344,-1.782c9.46768,-49.15731 36.51556,-78.21762 60.37969,-103.85863c20.59685,-22.13031 38.38125,-41.23731 38.38125,-68.02824c-0.00928,-45.80654 -45.4356,-83.06862 -101.26708,-83.06862z" fill="#472b29"/>
   </g>
   <g stroke="null">
    <path stroke="null" d="m561.38353,185.15996c0,16.79954 -16.58701,30.40823 -37.0632,30.40823c-20.47619,0 -37.0632,-13.60869 -37.0632,-30.40823c0,-16.79954 16.58701,-30.40823 37.0632,-30.40823c20.47619,0 37.0632,13.60869 37.0632,30.40823z" fill="#fffef4"/>
    <path stroke="null" d="m524.32034,219.37589c-23.0009,0 -41.70422,-15.35262 -41.70422,-34.21593s18.7126,-34.21593 41.70422,-34.21593s41.70422,15.35262 41.70422,34.21593s-18.7126,34.21593 -41.70422,34.21593zm0,-60.81647c-17.87721,0 -32.42217,11.93331 -32.42217,26.60054s14.54496,26.60054 32.42217,26.60054s32.42217,-11.93331 32.42217,-26.60054s-14.54496,-26.60054 -32.42217,-26.60054z" fill="#472b29"/>
   </g>
   <g stroke="null">
    <path stroke="null" d="m532.70202,286.40651c-0.73328,0 -1.46656,-0.14469 -2.15343,-0.44169c-2.26482,-0.97477 -3.14661,-3.27462 -1.94923,-5.14039c13.23619,-20.72146 38.29771,-47.45147 48.9999,-58.86693c2.39477,-2.56638 4.03769,-4.30269 4.57605,-4.96523c7.78763,-9.45069 11.89958,-20.493 11.89958,-31.93893c0,-2.10185 2.07918,-3.80769 4.64102,-3.80769s4.64102,1.70585 4.64102,3.80769c0,12.969 -4.65959,25.49631 -13.48681,36.20354c-0.58477,0.70823 -2.33907,2.58923 -4.91948,5.346c-10.55368,11.26315 -35.27176,37.62762 -48.14595,57.77031c-0.81682,1.287 -2.4319,2.03331 -4.10266,2.03331z" fill="#472b29"/>
   </g>
   <g stroke="null">
    <path stroke="null" d="m596.02411,172.5565c-2.04205,0 -3.90774,-1.11185 -4.46466,-2.79485c-1.61508,-4.78246 -4.00984,-9.38977 -7.11933,-13.71531c-3.31369,-4.59969 -7.39779,-8.79577 -12.13163,-12.474c-1.85641,-1.43931 -1.93995,-3.85338 -0.18564,-5.38408c1.76359,-1.51546 4.706,-1.59923 6.5624,-0.15231c5.35574,4.16562 9.98748,8.91762 13.73742,14.13416c3.51789,4.89669 6.23753,10.12846 8.05681,15.55823c0.68687,2.02569 -0.76113,4.11992 -3.23943,4.67585c-0.38985,0.10662 -0.80754,0.15231 -1.21595,0.15231z" fill="#472b29"/>
   </g>
   <g stroke="null">
    <path stroke="null" d="m558.58035,134.73088c-0.724,0 -1.448,-0.13708 -2.12559,-0.42646c-9.95035,-4.23415 -20.71752,-6.37408 -31.9952,-6.37408c-2.56184,0 -4.64102,-1.70585 -4.64102,-3.80769s2.07918,-3.80769 4.64102,-3.80769c12.59573,0 25.13577,2.49785 36.25566,7.21939c2.28338,0.96715 3.17446,3.267 1.99564,5.13277c-0.8261,1.30985 -2.45046,2.06377 -4.13051,2.06377z" fill="#472b29"/>
   </g>
  </g>
  <g transform="rotate(0.00566744 585 482.997)" stroke="null">
   <path stroke="null" d="m397.00265,369.99261l375.99478,0l0,226.00863l-375.99478,0l0,-226.00863z"/>
   <path stroke="null" fill="#fff" d="m397.00265,369.99261l375.99478,0l0,150.67242l-375.99478,0l0,-150.67242z"/>
   <path stroke="null" fill="#ce1126" d="m397.00265,369.99261l375.99478,0l0,75.33621l-375.99478,0l0,-75.33621z"/>
   <path stroke="null" fill="#007a3d" d="m501.97455,511.248l20.36137,-56.50216l20.36137,56.50216l-53.3077,-34.92022l65.891,0m72.02389,34.92022l20.36137,-56.50216l20.36137,56.50216l-53.3077,-34.92022l65.891,0"/>
  </g>
 </g>
</svg>