<svg width="800" height="600" xmlns="http://www.w3.org/2000/svg">

 <g>
  <title>Layer 1</title>
  <g stroke="null">
   <path stroke="null" d="m55.76978,134.33331a18.76921,14.66667 0 1 0 0,29.33334a18.76921,14.66667 0 1 0 0,-29.33334z" fill="#ee3e54"/>
   <path stroke="null" d="m656.38462,24.33331a9.38461,7.33333 0 1 0 0,14.66667a9.38461,7.33333 0 1 0 0,-14.66667z" fill="#f1bc19"/>
   <path stroke="null" d="m403.00023,31.66664a347.23045,271.33335 0 1 0 0,542.66671a347.23045,271.33335 0 1 0 0,-542.66671z" fill="#fce0a2"/>
   <path stroke="null" d="m712.69226,16.99997a37.53843,29.33334 0 1 0 0,58.66667a37.53843,29.33334 0 1 0 0,-58.66667z" fill="#f1bc19"/>
   <path stroke="null" d="m750.23068,97.66664a18.76921,14.66667 0 1 0 0,29.33334a18.76921,14.66667 0 1 0 0,-29.33334z" fill="#ee3e54"/>
   <path stroke="null" d="m693.92304,479.00001a18.76921,14.66667 0 1 0 0,29.33334a18.76921,14.66667 0 1 0 0,-29.33334zm-619.38405,-110.00001a37.53843,29.33334 0 1 0 0,58.66667a37.53843,29.33334 0 1 0 0,-58.66667z" fill="#fbcd59"/>
   <path stroke="null" d="m168.38506,559.66668a18.76921,14.66667 0 1 0 0,29.33334a18.76921,14.66667 0 1 0 0,-29.33334z" fill="#ee3e54"/>
   <path stroke="null" d="m107.38512,310.33333a23.46152,18.33333 0 1 0 0,36.66667a23.46152,18.33333 0 1 0 0,-36.66667z" fill="#fff"/>
   <path stroke="null" d="m130.84664,420.33333a9.38461,7.33333 0 1 0 0,14.66667a9.38461,7.33333 0 1 0 0,-14.66667z" fill="#f1bc19"/>
   <path stroke="null" d="m684.53844,178.33332a9.38461,7.33333 0 1 0 0,14.66667a9.38461,7.33333 0 1 0 0,-14.66667z" fill="#fff"/>
   <path stroke="null" d="m265.08405,459.2c-34.17874,0 -61.97594,-21.72867 -61.97594,-48.42934l0,-200.86735c0,-26.708 27.79721,-48.42934 61.97594,-48.42934l257.05376,0c34.17874,0 61.97594,21.72867 61.97594,48.42934l0,200.86735c0,26.708 -27.80659,48.42934 -61.97594,48.42934l-257.05376,0z" fill="#67ba8c"/>
   <path stroke="null" d="m522.1472,166.59998c30.55628,0 55.40672,19.426 55.40672,43.30334l0,200.86735c0,23.87734 -24.85982,43.30334 -55.40672,43.30334l-257.06315,0c-30.55628,0 -55.40672,-19.426 -55.40672,-43.30334l0,-200.87468c0,-23.87734 24.85982,-43.30334 55.40672,-43.30334l257.06315,0m0,-10.25933l-257.06315,0c-37.69797,0 -68.54517,24.10467 -68.54517,53.56267l0,200.86735c0,29.46534 30.8472,53.57 68.54517,53.57l257.05376,0c37.70735,0 68.55455,-24.10467 68.55455,-53.56267l0,-200.87468c0,-29.458 -30.8472,-53.56267 -68.54517,-53.56267l0,0z" fill="#472b29"/>
   <path stroke="null" d="m554.39271,293.12933c-2.59015,0 -4.6923,-1.64267 -4.6923,-3.66667l0,-25.93067c0,-2.024 2.10215,-3.66667 4.6923,-3.66667s4.6923,1.64267 4.6923,3.66667l0,25.93067c0,2.03133 -2.10215,3.66667 -4.6923,3.66667z" fill="#472b29"/>
   <g stroke="null">
    <path stroke="null" d="m554.39271,247.11999c-2.59015,0 -4.6923,-1.64267 -4.6923,-3.66667l0,-13.39067c0,-2.024 2.10215,-3.66667 4.6923,-3.66667s4.6923,1.64267 4.6923,3.66667l0,13.39067c0,2.024 -2.10215,3.66667 -4.6923,3.66667z" fill="#472b29"/>
   </g>
   <g stroke="null">
    <path stroke="null" d="m400.213,337.99466c0,0 -104.44129,78.40801 -145.49894,115.19201c4.09169,0.75533 8.34292,1.188 12.72553,1.188l256.9693,0c6.86015,0 13.4106,-1.01933 19.49183,-2.80133c-42.24012,-37.422 -143.68771,-113.57868 -143.68771,-113.57868z" fill="#3e7bf1"/>
    <path stroke="null" d="m524.41827,456.21534l-256.97869,0c-4.3263,0 -8.79338,-0.418 -13.26045,-1.23933l-3.79138,-0.69667l2.55261,-2.29533c40.64473,-36.432 144.58864,-114.52468 145.63971,-115.31668l1.62354,-1.21733l1.62354,1.21733c1.01354,0.76267 102.01068,76.64067 143.82848,113.69601l2.25231,1.99467l-3.19077,0.93133c-6.61615,1.94333 -13.44814,2.926 -20.2989,2.926zm-265.25591,-4.202c2.79661,0.352 5.56507,0.528 8.27722,0.528l256.9693,0c5.17092,0 10.34184,-0.60867 15.40014,-1.81133c-39.94089,-34.94334 -126.63588,-100.43001 -139.59603,-110.19067c-13.11968,9.88533 -101.80421,76.87534 -141.05064,111.47401z" fill="#472b29"/>
   </g>
   <g stroke="null">
    <path stroke="null" d="m371.29903,332.942l155.29647,121.35201c18.56275,-0.56467 34.81689,-8.206 44.41734,-19.60933l-164.95323,-128.90534l-34.76058,27.16267z" fill="#fffef4"/>
    <path stroke="null" d="m525.65704,456.15667l-157.67078,-123.21468l38.07335,-29.75867l167.97508,131.25934l-1.05108,1.24667c-10.31368,12.22467 -27.60951,19.85867 -46.29427,20.43067l-1.03231,0.03667zm-151.03586,-123.21468l152.9034,119.48201c16.15091,-0.74067 31.08182,-7.20867 40.46642,-17.51933l-161.93139,-126.53668l-31.43843,24.574z" fill="#472b29"/>
   </g>
   <g stroke="null">
    <path stroke="null" d="m421.62868,321.25999c0,0 101.89806,82.88867 148.50202,114.43668c6.32522,-7.06933 10.06968,-15.64933 10.06968,-24.91134l0,-200.80135c0,-3.06533 -0.42231,-6.05733 -1.19185,-8.94667c-40.76673,25.366 -157.37986,120.22268 -157.37986,120.22268z" fill="#bebacb"/>
    <path stroke="null" d="m570.553,438.41l-1.97077,-1.33467c-46.14411,-31.24 -147.62925,-113.71801 -148.66156,-114.54668l-1.55784,-1.26867l1.55784,-1.26867c1.18246,-0.946 117.20435,-95.23067 157.63324,-120.39134l2.97492,-1.85533l0.77892,2.91867c0.81646,3.09467 1.23877,6.23333 1.23877,9.32067l0,200.80868c0,9.31333 -3.63184,18.282 -10.49199,25.96l-1.50154,1.65733zm-145.67725,-117.15001c12.84753,10.41333 101.16606,81.79601 144.77633,111.67934c5.37738,-6.65867 8.20215,-14.278 8.20215,-22.154l0,-200.80868c0,-1.83333 -0.16892,-3.696 -0.47861,-5.544c-39.92212,25.81334 -138.83587,105.75401 -152.49986,116.82734z" fill="#472b29"/>
   </g>
   <g stroke="null">
    <path stroke="null" d="m264.75559,454.272l315.3134,-246.39269c-0.89154,-14.44667 -10.76414,-27.05267 -25.39475,-34.474l-334.03569,261.01535c9.48784,11.43267 25.62936,19.15467 44.11704,19.85133z" fill="#fde751"/>
    <path stroke="null" d="m265.67528,456.142l-1.04169,-0.03667c-18.61906,-0.704 -35.80227,-8.43333 -45.9658,-20.68733l-1.03231,-1.24667l1.342,-1.04867l335.37769,-262.06402l1.586,0.80667c15.68168,7.94933 25.57305,21.384 26.46459,35.926l0.04692,0.80667l-316.7774,247.54402zm-42.01488,-21.494c9.25322,10.33267 24.0809,16.896 40.1755,17.74667l313.82125,-245.22669c-1.08861,-12.56933 -9.48784,-24.156 -22.70136,-31.394l-331.29539,258.87402z" fill="#472b29"/>
   </g>
   <g stroke="null">
    <path stroke="null" d="m307.51186,232.41665l0,17.58533l32.07659,0c-4.22307,10.65533 -15.59722,18.26733 -32.07659,18.26733c-19.61383,0 -35.51135,-12.42267 -35.51135,-27.74934c0,-15.36333 15.89752,-27.77867 35.51135,-27.77867c8.82153,0 16.90168,2.552 23.08613,6.70267l16.56383,-12.94333c-10.45445,-7.45067 -24.34367,-11.99733 -39.64996,-11.99733c-32.53643,0 -58.88841,20.62133 -58.88841,46.01667c0,25.39534 26.35198,46.01667 58.88841,46.01667c51.53088,0 60.35241,-36.11667 55.50056,-54.054l-55.50056,-0.066z" fill="#fff"/>
    <path stroke="null" d="m307.51186,288.36999c-33.76582,0 -61.23456,-21.46467 -61.23456,-47.84267s27.46874,-47.85 61.23456,-47.85c15.30629,0 29.94628,4.42933 41.23596,12.474l1.81123,1.298l-19.82967,15.49533l-1.65169,-1.10733c-6.02492,-4.03333 -13.68276,-6.25533 -21.56583,-6.25533c-18.28121,0 -33.1652,11.638 -33.1652,25.94534c0,14.28533 14.8746,25.90867 33.1652,25.90867c13.3543,0 23.88382,-5.40467 28.74505,-14.60067l-31.0912,0l0,-21.24467l59.75179,0.066l0.39415,1.452c3.14384,11.62333 0.63815,28.81267 -12.03107,41.03c-10.50137,10.10533 -25.90151,15.23133 -45.76873,15.23133zm0,-92.03334c-31.17566,0 -56.54226,19.822 -56.54226,44.18334s25.36659,44.176 56.54226,44.176c18.38444,0 32.56459,-4.67133 42.11812,-13.88933c11.17707,-10.78 13.7766,-25.79867 11.43984,-36.50534l-51.2118,-0.066l0,13.91133l32.9212,0l-0.94785,2.376c-4.86123,12.24667 -17.68998,19.558 -34.31951,19.558c-20.87137,0 -37.8575,-13.27333 -37.8575,-29.57534c0,-16.33133 16.98614,-29.612 37.8575,-29.612c8.27722,0 16.3386,2.14133 22.92659,6.06467l13.29799,-10.384c-10.15414,-6.60733 -22.91721,-10.23733 -36.22458,-10.23733z" fill="#472b29"/>
   </g>
   <g stroke="null">
    <path stroke="null" d="m519.59459,108.74731c-59.14179,0 -107.06898,37.45134 -107.06898,83.66601c0,57.002 82.059,77.78467 99.91791,166.09268c1.17308,5.68333 1.25754,9.60667 7.15107,9.60667c5.89353,0 5.97799,-3.92333 7.15107,-9.60667c17.85891,-88.30801 99.91791,-109.09801 99.91791,-166.09268c0,-46.21467 -47.92719,-83.66601 -107.06898,-83.66601z" fill="#ea4989"/>
    <path stroke="null" d="m519.59459,371.77933c-9.3283,0 -10.55768,-6.38 -11.4586,-11.03667l-0.31908,-1.65733c-9.2063,-45.518 -35.79289,-72.71734 -59.24502,-96.71201c-21.85675,-22.374 -40.73858,-41.69 -40.73858,-69.96001c0,-48.15067 50.14195,-87.33267 111.76128,-87.33267s111.76128,39.182 111.76128,87.33267c0,28.27 -18.88183,47.586 -40.73858,69.95267c-23.45213,24.002 -50.02934,51.20134 -59.23564,96.71201l-0.32846,1.66467c-0.89154,4.65667 -2.12092,11.03667 -11.4586,11.03667zm0,-259.36535c-56.45779,0 -102.37668,35.88934 -102.37668,79.99934c0,25.79867 17.98091,44.19067 38.81473,65.50867c24.12782,24.69134 51.47457,52.68267 61.05625,100.01934l0.33785,1.716c0.34723,1.79667 0.81646,4.26067 1.41708,4.752l1.57661,-0.044c0.54431,-0.45467 1.01354,-2.91133 1.36077,-4.72267l0.34723,-1.716c9.5723,-47.33667 36.91904,-75.32067 61.04687,-100.01201c20.82444,-21.31067 38.80535,-39.71 38.80535,-65.50867c-0.00938,-44.11 -45.93765,-79.99201 -102.38606,-79.99201z" fill="#472b29"/>
   </g>
   <g stroke="null">
    <path stroke="null" d="m557.06732,192.41332c0,16.17733 -16.77029,29.282 -37.47273,29.282c-20.70244,0 -37.47273,-13.10467 -37.47273,-29.282c0,-16.17733 16.77029,-29.282 37.47273,-29.282c20.70244,0 37.47273,13.10467 37.47273,29.282z" fill="#fffef4"/>
    <path stroke="null" d="m519.59459,225.36199c-23.25506,0 -42.16504,-14.784 -42.16504,-32.94867s18.91937,-32.94867 42.16504,-32.94867s42.16504,14.784 42.16504,32.94867s-18.91937,32.94867 -42.16504,32.94867zm0,-58.564c-18.07475,0 -32.78043,11.49133 -32.78043,25.61534s14.70568,25.61534 32.78043,25.61534s32.78043,-11.49133 32.78043,-25.61534s-14.70568,-25.61534 -32.78043,-25.61534z" fill="#472b29"/>
   </g>
   <g stroke="null">
    <path stroke="null" d="m528.06889,289.90999c-0.74138,0 -1.48277,-0.13933 -2.17723,-0.42533c-2.28984,-0.93867 -3.18138,-3.15333 -1.97077,-4.95c13.38245,-19.954 38.72089,-45.694 49.54134,-56.68667c2.42123,-2.47133 4.0823,-4.14333 4.62661,-4.78133c7.87369,-9.10067 12.03107,-19.734 12.03107,-30.756c0,-2.024 2.10215,-3.66667 4.6923,-3.66667s4.6923,1.64267 4.6923,3.66667c0,12.48867 -4.71107,24.552 -13.63583,34.86267c-0.59123,0.682 -2.36492,2.49333 -4.97384,5.148c-10.6703,10.846 -35.66151,36.234 -48.67796,55.63067c-0.82585,1.23933 -2.45877,1.958 -4.148,1.958z" fill="#472b29"/>
   </g>
   <g stroke="null">
    <path stroke="null" d="m592.09067,180.27665c-2.06461,0 -3.95092,-1.07067 -4.514,-2.69133c-1.63292,-4.60533 -4.05415,-9.042 -7.19799,-13.20733c-3.3503,-4.42933 -7.47953,-8.47 -12.26568,-12.012c-1.87692,-1.386 -1.96138,-3.71067 -0.18769,-5.18467c1.78308,-1.45933 4.758,-1.54 6.63492,-0.14667c5.41492,4.01133 10.09784,8.58733 13.88922,13.61067c3.55677,4.71533 6.30646,9.75333 8.14584,14.982c0.69446,1.95067 -0.76954,3.96733 -3.27523,4.50267c-0.39415,0.10267 -0.81646,0.14667 -1.22938,0.14667z" fill="#472b29"/>
   </g>
   <g stroke="null">
    <path stroke="null" d="m554.23317,143.85198c-0.732,0 -1.464,-0.132 -2.14907,-0.41067c-10.0603,-4.07733 -20.94644,-6.138 -32.34874,-6.138c-2.59015,0 -4.6923,-1.64267 -4.6923,-3.66667s2.10215,-3.66667 4.6923,-3.66667c12.73491,0 25.41352,2.40533 36.65627,6.952c2.30861,0.93133 3.20954,3.146 2.01769,4.94267c-0.83523,1.26133 -2.47754,1.98733 -4.17615,1.98733z" fill="#472b29"/>
   </g>
  </g>
  <g stroke="null">
   <rect stroke="null" x="416" y="375" id="svg_6" fill="#00732f" height="225.99985" width="354.00001"/>
   <rect stroke="null" x="416" fill="#fff" y="450.33328" height="150.66656" width="354.00001"/>
   <rect stroke="null" x="416" y="525.66656" height="75.33328" width="354.00001"/>
   <rect stroke="null" x="416" y="375" id="svg_5" fill="#f00" height="225.99985" width="88.5"/>
  </g>
 </g>
</svg>