<svg xmlns="http://www.w3.org/2000/svg" viewBox="0 0 800 600"><g stroke="null"><path d="M66 125a19 15 0 1 0 0 30 19 15 0 1 0 0-30z" fill="#ee3e54"/><path d="M660 11a9 8 0 1 0 0 15 9 8 0 1 0 0-15z" fill="#f1bc19"/><path d="M409 18a343 282 0 1 0 0 564 343 282 0 1 0 0-564z" fill="#fce0a2"/><path d="M715 3a37 30 0 1 0 0 61 37 30 0 1 0 0-61z" fill="#f1bc19"/><path d="M752 87a19 15 0 1 0 0 30 19 15 0 1 0 0-30z" fill="#ee3e54"/><path d="M697 483a19 15 0 1 0 0 30 19 15 0 1 0 0-30zM84 369a37 30 0 1 0 0 60 37 30 0 1 0 0-60z" fill="#fbcd59"/><path d="M177 567a19 15 0 1 0 0 30 19 15 0 1 0 0-30z" fill="#ee3e54"/><path d="M117 308a23 19 0 1 0 0 38 23 19 0 1 0 0-38z" fill="#fff"/><path d="M140 422a9 8 0 1 0 0 15 9 8 0 1 0 0-15z" fill="#f1bc19"/><path d="M687 171a9 8 0 1 0 0 15 9 8 0 1 0 0-15z" fill="#fff"/><path d="M273 462c-34 0-62-22-62-50V203c0-27 28-50 62-50h254c34 0 61 23 61 50v209c0 28-27 50-61 50H273z" fill="#67ba8c"/><path d="M527 158c30 0 55 21 55 45v209c0 25-25 45-55 45H273c-31 0-55-20-55-45V203c0-24 24-45 55-45h254m0-10H273c-38 0-68 25-68 55v209c0 31 30 56 68 56h254c37 0 68-25 68-56V203c0-30-31-55-68-55z" fill="#472b29"/><path d="M559 290c-3 0-5-2-5-4v-27c0-2 2-4 5-4s4 2 4 4v27c0 2-2 4-4 4zm0-48c-3 0-5-2-5-4v-14c0-2 2-4 5-4s4 2 4 4v14c0 2-2 4-4 4z" fill="#472b29"/><path d="M406 336s-103 82-144 120l13 1h254c7 0 13-1 19-3-41-39-142-118-142-118z" fill="#3e7bf1"/><path d="M529 459H275l-13-1-4-1 3-2c40-38 143-119 144-120l1-1 2 1c1 1 101 80 142 118l2 2-3 1c-6 2-13 3-20 3zm-262-4h262c5 0 10 0 15-2-39-36-125-104-138-114-13 10-100 80-139 116z" fill="#472b29"/><path d="m378 331 153 126c19 0 35-8 44-20L412 303l-34 28z" fill="#fffef4"/><path d="M530 459 374 331l38-31 166 136-1 2a61 61 0 0 1-46 21h-1zM381 331l151 124c16-1 31-7 40-18L412 306l-31 25z" fill="#472b29"/><path d="M427 319s101 86 147 119c7-8 10-16 10-26V203l-1-9c-40 26-156 125-156 125z" fill="#bebacb"/><path d="m575 441-2-2c-46-32-146-118-147-119l-2-1 2-1c1-1 116-99 156-125l3-2v3l2 9v209c0 10-4 19-11 27l-1 2zM431 319c12 11 100 85 143 116 5-7 8-15 8-23V203l-1-5c-39 26-137 109-150 121z" fill="#472b29"/><path d="m272 457 312-256c-1-15-11-28-25-36L229 436c9 12 25 20 43 21z" fill="#fde751"/><path d="M273 459h-1c-18-1-35-9-45-21l-1-2 1-1 332-272 1 1c16 8 26 22 26 37v1L273 459zm-41-22c9 10 23 17 39 18l311-255c-1-13-10-25-23-32L232 437z" fill="#472b29"/><path d="M315 227v18h31c-4 11-15 19-31 19-20 0-36-13-36-29s16-29 36-29c8 0 16 3 22 7l17-13c-11-8-24-13-39-13-33 0-59 22-59 48s26 48 59 48c51 0 59-38 54-56h-54z" fill="#fff"/><path d="M315 285c-34 0-61-22-61-50s27-50 61-50c15 0 29 5 40 13l2 2-19 16-2-1c-6-5-14-7-21-7-19 0-33 12-33 27s14 27 33 27c13 0 23-6 28-15h-31v-22h59l1 1c3 12 0 30-12 43a65 65 0 0 1-45 16zm0-96c-31 0-56 21-56 46s25 46 56 46c18 0 32-5 41-14 11-12 14-27 12-38h-51v14h32l-1 3c-4 12-17 20-33 20-21 0-38-14-38-31s17-31 38-31c8 0 16 3 22 7l13-11c-10-7-22-11-35-11z" fill="#472b29"/><path d="M524 98c-58 0-106 39-106 87 0 59 82 81 99 173 1 6 1 10 7 10s6-4 7-10c18-92 99-114 99-173 0-48-47-87-106-87z" fill="#ea4989"/><path d="M524 371c-9 0-10-6-11-11v-2c-9-47-36-75-59-100-22-23-40-43-40-73 0-50 49-91 110-91s111 41 111 91c0 30-19 50-40 73-24 25-50 53-59 100v2c-1 5-2 11-12 11zm0-269c-56 0-101 37-101 83 0 27 18 46 38 68 24 26 51 55 61 104v2l2 5h1l1-5 1-2c9-49 36-78 60-104 21-22 39-41 39-68 0-46-46-83-102-83z" fill="#472b29"/><path d="M561 185c0 17-16 31-37 31-20 0-37-14-37-31s17-30 37-30c21 0 37 13 37 30z" fill="#fffef4"/><path d="M524 219c-23 0-41-15-41-34s18-34 41-34 42 15 42 34-19 34-42 34zm0-60c-18 0-32 11-32 26s14 27 32 27 33-12 33-27-15-26-33-26zm9 127h-2c-3-1-4-3-2-5 13-21 38-48 49-59l4-5c8-9 12-21 12-32 0-2 2-4 5-4s4 2 4 4a57 57 0 0 1-18 42c-11 11-35 37-48 57-1 2-3 2-4 2zm63-113c-2 0-4-2-4-3-2-5-4-10-8-14-3-5-7-9-12-12-2-2-2-4 0-6h7c5 4 10 9 13 14 4 5 7 10 8 16 1 2 0 4-3 4l-1 1zm-37-38-3-1c-9-4-20-6-32-6-2 0-4-2-4-4s2-4 4-4c13 0 26 3 37 8 2 1 3 3 2 5l-4 2z" fill="#472b29"/></g><g stroke="null"><path d="M397 370h376v226H397V370z"/><path fill="#fff" d="M397 370h376v151H397V370z"/><path fill="#ce1126" d="M397 370h376v75H397v-75z"/><path fill="#007a3d" d="m502 511 20-56 21 56-54-35h66m72 35 21-56 20 56-53-35h66"/></g></svg>