<svg xmlns="http://www.w3.org/2000/svg" viewBox="0 0 800 600"><g stroke="null"><path d="M114 124a15 15 0 1 0 0 31 15 15 0 1 0 0-31z" fill="#ee3e54"/><path d="M600 11a8 8 0 1 0 0 15 8 8 0 1 0 0-15z" fill="#f1bc19"/><path d="M395 18a281 281 0 1 0 0 562 281 281 0 1 0 0-562z" fill="#fce0a2"/><path d="M645 3a30 30 0 1 0 0 61 30 30 0 1 0 0-61z" fill="#f1bc19"/><path d="M676 86a15 15 0 1 0 0 31 15 15 0 1 0 0-31z" fill="#ee3e54"/><path d="M630 481a15 15 0 1 0 0 31 15 15 0 1 0 0-31zM129 367a30 30 0 1 0 0 61 30 30 0 1 0 0-61z" fill="#fbcd59"/><path d="M205 565a15 15 0 1 0 0 30 15 15 0 1 0 0-30z" fill="#ee3e54"/><path d="M156 307a19 19 0 1 0 0 38 19 19 0 1 0 0-38z" fill="#fff"/><path d="M175 420a8 8 0 1 0 0 16 8 8 0 1 0 0-16z" fill="#f1bc19"/><path d="M623 170a8 8 0 1 0 0 15 8 8 0 1 0 0-15z" fill="#fff"/><path d="M406 109a178 178 0 0 0-152 271l-26 79 76-25a178 178 0 1 0 102-325z" fill="#add4a1"/><path d="M406 471c-37 0-72-10-102-31l-74 24c-2 1-4 0-5-1-2-2-2-4-2-5l25-77a184 184 0 0 1 159-277c101 0 184 83 184 184s-84 183-185 183zm-102-42 4 1a173 173 0 1 0-49-52v4l-23 69 66-22h2z" fill="#472b29"/><path d="M521 201a144 144 0 0 0-233 167l-15 47 45-14a144 144 0 0 0 230-137" fill="#5aba9e"/><path d="M406 435c-32 0-64-11-89-30l-44 14c-1 1-3 0-3-1-1-1-2-2-1-4l14-45a148 148 0 0 1 241-170c1 1 1 4-1 5-1 2-4 1-5-1a140 140 0 0 0-227 163l1 3-13 40 38-12c1-1 2 0 3 1a140 140 0 0 0 224-133c0-2 1-4 3-5 3 0 4 1 5 3l2 25c-1 81-67 147-148 147z" fill="#472b29"/><path d="m543 243-11-25" fill="#5aba9e"/><path d="M543 247c-2 0-3-1-4-3-3-8-6-16-11-24 0-1 0-4 2-5 1-1 4 0 5 1l12 25c0 3-1 4-3 5l-1 1z" fill="#472b29"/><path d="M464 365a187 187 0 0 1-129-80l-2-1c-6-9-19-28-19-46 0-13 6-27 17-36 4-3 9-5 14-5h10l2 2 3 5 6 13 9 20c1 1 2 4 1 7l-5 6-2 3h-2l-5 5c-4 4-4 8-2 12a143 143 0 0 0 67 55l1 1 6 1c4 0 7-1 9-4l12-13 2-3c1-1 2-3 5-3h3l33 15 3 1 4 2c1 1 2 1 2 3 0 7-1 13-3 19-4 9-19 18-31 20l-9 1z" fill="#fdfcee"/><path d="M352 201h2l2 4 5 10 10 24 1 3-4 5v1l-4 3-4 5c-5 4-6 11-2 16a128 128 0 0 0 68 55l1 2 7 1c5 0 9-1 12-4l12-14 2-3 2-2 3 1 32 15 3 1 4 2c0 6-1 12-3 17-3 8-17 16-28 18l-8 1c-8 0-21-2-47-12-28-11-57-34-80-65l-2-2c-6-9-18-26-18-43-1-13 5-25 15-34 3-3 8-4 12-4h6l1-1m0-8h-7c-6 0-12 3-16 6a51 51 0 0 0-18 39c0 19 12 38 20 48l2 2c23 31 53 56 82 67 23 9 39 13 50 13l10-1c12-2 29-11 33-22 2-7 4-14 4-21 0-3-3-5-5-7l-4-1-3-2-33-15-5-1c-5 0-7 4-8 5l-2 3-11 13-7 2-3-1-2-1c-14-5-27-12-37-22-11-9-20-19-28-31-1-2 0-5 1-6l1-1 4-5 1-1 2-2 5-7c2-2 2-6-1-10l-9-20-1-4-5-10-4-6-4-2-2 1z" fill="#472b29"/></g><g stroke="null"><path d="M384 385h399v213H384V385z"/><path fill="#fff" d="M384 385h399v142H384V385z"/><path fill="#ce1126" d="M384 385h399v71H384v-71z"/><path fill="#007a3d" d="m495 518 22-53 22 53-57-33h70m76 33 22-53 22 53-57-33h70"/></g></svg>