<svg width="64" height="64" viewBox="0 0 64 64" xmlns="http://www.w3.org/2000/svg">
    <!-- WhatsApp Icon -->
    <circle cx="32" cy="32" r="32" fill="#25D366"/>
    <path d="M39.48,24.52c-0.86-0.86-2.25-0.86-3.11,0l-1.71,1.71c-0.86,0.86-2.25,0.86-3.11,0L23.63,18.02c-0.86-0.86-0.86-2.25,0-3.11l1.71-1.71c0.86-0.86,0.86-2.25,0-3.11s-2.25-0.86-3.11,0l-1.71,1.71c-2.48,2.48-2.48,6.51,0,8.99l6.02,6.02c2.48,2.48,6.51,2.48,8.99,0l1.71-1.71C40.34,26.77,40.34,25.38,39.48,24.52z" fill="#FFFFFF"/>
    <!-- UAE Flag Badge -->
    <g transform="translate(45, 0)">
        <rect x="0" y="0" width="19" height="10" fill="#FF0000"/>
        <rect x="0" y="10" width="19" height="10" fill="#FFFFFF"/>
        <rect x="0" y="20" width="19" height="10" fill="#00732F"/>
        <rect x="0" y="30" width="19" height="10" fill="#000000"/>
    </g>
</svg>
