<svg width="800" height="600" xmlns="http://www.w3.org/2000/svg">

 <g>
  <title>Layer 1</title>
  <g stroke="null">
   <path stroke="null" d="m113.95941,124.39863a15.18218,15.18218 0 1 0 0,30.36436a15.18218,15.18218 0 1 0 0,-30.36436z" fill="#ee3e54"/>
   <path stroke="null" d="m599.78924,10.53227a7.59109,7.59109 0 1 0 0,15.18218a7.59109,7.59109 0 1 0 0,-15.18218z" fill="#f1bc19"/>
   <path stroke="null" d="m394.82978,18.12336a280.87037,280.87037 0 1 0 0,561.74074a280.87037,280.87037 0 1 0 0,-561.74074z" fill="#fce0a2"/>
   <path stroke="null" d="m645.33578,2.94118a30.36436,30.36436 0 1 0 0,60.72873a30.36436,30.36436 0 1 0 0,-60.72873z" fill="#f1bc19"/>
   <path stroke="null" d="m675.70015,86.44318a15.18218,15.18218 0 1 0 0,30.36436a15.18218,15.18218 0 1 0 0,-30.36436z" fill="#ee3e54"/>
   <path stroke="null" d="m630.1536,481.17991a15.18218,15.18218 0 1 0 0,30.36436a15.18218,15.18218 0 1 0 0,-30.36436zm-501.01201,-113.86637a30.36436,30.36436 0 1 0 0,60.72873a30.36436,30.36436 0 1 0 0,-60.72873z" fill="#fbcd59"/>
   <path stroke="null" d="m205.0525,564.68191a15.18218,15.18218 0 1 0 0,30.36436a15.18218,15.18218 0 1 0 0,-30.36436z" fill="#ee3e54"/>
   <path stroke="null" d="m155.71041,306.58482a18.97773,18.97773 0 1 0 0,37.95546a18.97773,18.97773 0 1 0 0,-37.95546z" fill="#fff"/>
   <path stroke="null" d="m174.68814,420.45118a7.59109,7.59109 0 1 0 0,15.18218a7.59109,7.59109 0 1 0 0,-15.18218z" fill="#f1bc19"/>
   <path stroke="null" d="m622.56251,169.94518a7.59109,7.59109 0 1 0 0,15.18218a7.59109,7.59109 0 1 0 0,-15.18218z" fill="#fff"/>
   <path stroke="null" d="m406.21641,109.21645c-98.68418,0 -178.39064,79.70646 -178.39064,178.39064c0,34.15991 9.10931,65.28338 25.80971,92.61131l-25.80971,78.94735l76.67002,-25.0506c28.84615,20.49595 63.76516,31.88258 101.72062,31.88258c98.68418,0 178.39064,-79.70646 178.39064,-178.39064s-79.70646,-178.39064 -178.39064,-178.39064z" fill="#add4a1"/>
   <path stroke="null" d="m406.21641,471.31149c-37.19635,0 -72.11536,-10.62753 -102.47973,-31.12347l-73.63358,24.29149c-2.27733,0.75911 -3.79555,0 -5.31376,-1.51822c-1.51822,-1.51822 -2.27733,-3.79555 -1.51822,-5.31376l25.0506,-76.67002c-16.7004,-28.08704 -25.0506,-59.96962 -25.0506,-93.37042c0,-100.96151 82.74289,-183.7044 183.7044,-183.7044s183.7044,82.74289 183.7044,183.7044s-83.502,183.7044 -184.46351,183.7044zm-101.72062,-42.51011c0.75911,0 2.27733,0 3.03644,0.75911c28.84615,20.49595 63.00606,31.12347 98.68418,31.12347c95.64775,0 173.07688,-77.42913 173.07688,-173.07688c0,-95.64775 -77.42913,-173.07688 -173.07688,-173.07688c-95.64775,0 -173.07688,77.42913 -173.07688,173.07688c0,31.88258 8.3502,63.00606 25.0506,89.57487c0.75911,1.51822 0.75911,3.03644 0.75911,4.55465l-22.77327,69.07893l66.04249,-22.01416c0.75911,0 1.51822,0 2.27733,0z" fill="#472b29"/>
   <path stroke="null" d="m520.84189,201.06865c-26.56882,-34.15991 -67.56071,-56.93318 -114.62547,-56.93318c-78.94735,0 -143.47162,64.52427 -143.47162,143.47162c0,29.60526 9.10931,57.69229 25.0506,80.46556l-15.18218,47.06476l45.54655,-14.42307c24.29149,18.97773 55.41496,31.12347 88.81577,31.12347c78.94735,0 143.47162,-64.52427 143.47162,-143.47162c0,-8.3502 -0.75911,-15.94129 -2.27733,-24.29149" fill="#5aba9e"/>
   <path stroke="null" d="m406.21641,434.87426c-32.64169,0 -63.76516,-10.62753 -89.57487,-30.36436l-43.26922,14.42307c-1.51822,0.75911 -3.03644,0 -3.79555,-0.75911c-0.75911,-0.75911 -1.51822,-2.27733 -0.75911,-3.79555l14.42307,-45.54655c-15.94129,-24.29149 -24.29149,-52.37853 -24.29149,-81.22467c0,-81.22467 66.04249,-147.26717 147.26717,-147.26717c46.30566,0 89.57487,21.25505 117.66191,58.4514c1.51822,1.51822 0.75911,3.79555 -0.75911,5.31376c-1.51822,1.51822 -3.79555,0.75911 -5.31376,-0.75911c-26.56882,-34.91902 -67.56071,-55.41496 -111.58904,-55.41496c-76.67002,0 -139.67608,63.00606 -139.67608,139.67608c0,28.08704 8.3502,55.41496 24.29149,78.18824c0.75911,0.75911 0.75911,2.27733 0.75911,3.03644l-12.90485,40.23278l37.95546,-12.14575c1.51822,-0.75911 2.27733,0 3.79555,0.75911c25.0506,19.73684 54.65586,30.36436 86.53844,30.36436c76.67002,0 139.67608,-63.00606 139.67608,-139.67608c0,-7.59109 -0.75911,-15.94129 -2.27733,-23.53238c0,-2.27733 0.75911,-3.79555 3.03644,-4.55465c2.27733,0 3.79555,0.75911 4.55465,3.03644c1.51822,8.3502 2.27733,16.7004 2.27733,24.29149c-0.75911,81.22467 -66.8016,147.26717 -148.02628,147.26717z" fill="#472b29"/>
   <g stroke="null">
    <path stroke="null" d="m542.85605,242.81965c-3.03644,-8.3502 -6.83198,-16.7004 -10.62753,-25.0506" fill="#5aba9e"/>
    <path stroke="null" d="m542.85605,246.6152c-1.51822,0 -3.03644,-0.75911 -3.79555,-2.27733c-3.03644,-8.3502 -6.07287,-16.7004 -10.62753,-24.29149c-0.75911,-1.51822 0,-3.79555 1.51822,-5.31376c1.51822,-0.75911 3.79555,0 5.31376,1.51822c4.55465,8.3502 8.3502,16.7004 11.38664,25.0506c0.75911,2.27733 -0.75911,3.79555 -2.27733,4.55465c-0.75911,0.75911 -1.51822,0.75911 -1.51822,0.75911z" fill="#472b29"/>
   </g>
   <g stroke="null">
    <path stroke="null" d="m463.90871,365.03622c-10.62753,0 -25.80971,-3.79555 -47.82387,-12.90485c-28.84615,-11.38664 -57.69229,-34.91902 -81.22467,-66.8016l-1.51822,-1.51822c-6.83198,-9.10931 -18.97773,-27.32793 -18.97773,-45.54655c-0.75911,-13.66396 5.31376,-27.32793 16.7004,-36.43724c3.79555,-3.03644 9.10931,-4.55465 13.66396,-4.55465l1.51822,0l5.31376,0c0,0 0.75911,0 1.51822,0s0.75911,0 1.51822,0c0.75911,0 1.51822,0.75911 2.27733,1.51822c1.51822,1.51822 2.27733,3.03644 3.03644,5.31376l6.07287,12.90485c4.55465,9.86842 8.3502,18.97773 9.10931,19.73684c0.75911,0.75911 2.27733,3.79555 0.75911,6.83198c-1.51822,2.27733 -3.03644,4.55465 -4.55465,6.07287c-0.75911,1.51822 -1.51822,2.27733 -2.27733,3.03644l-2.27733,0.75911c-0.75911,0.75911 -3.03644,3.03644 -4.55465,4.55465c-3.79555,3.79555 -4.55465,8.3502 -2.27733,12.14575c7.59109,12.14575 16.7004,22.77327 28.08704,31.88258c11.38664,9.86842 24.29149,17.45951 38.71456,22.77327l1.51822,0.75911c1.51822,0.75911 3.79555,1.51822 6.07287,1.51822c3.79555,0 6.83198,-1.51822 9.10931,-3.79555c3.79555,-4.55465 7.59109,-9.10931 11.38664,-13.66396l2.27733,-3.03644c0.75911,-0.75911 2.27733,-3.03644 5.31376,-3.03644c0.75911,0 2.27733,0 3.03644,0.75911c3.79555,1.51822 25.0506,10.62753 32.64169,14.42307l3.03644,1.51822l3.79555,1.51822c1.51822,0.75911 2.27733,1.51822 2.27733,3.03644c0,6.83198 -0.75911,12.90485 -3.03644,18.97773c-3.79555,9.10931 -18.97773,18.21862 -31.12347,20.49595c-2.27733,0.75911 -5.31376,0.75911 -9.10931,0.75911z" fill="#fdfcee"/>
    <path stroke="null" d="m352.31967,201.06865c0.75911,0 0.75911,0 1.51822,0c0.75911,0.75911 1.51822,2.27733 2.27733,3.79555l4.55465,9.86842c6.07287,12.90485 9.86842,22.77327 10.62753,24.29149s0.75911,2.27733 0.75911,3.03644c-0.75911,2.27733 -2.27733,3.79555 -3.79555,5.31376l-0.75911,0.75911c-0.75911,0.75911 -2.27733,2.27733 -3.03644,3.03644c-0.75911,0.75911 -3.03644,3.03644 -4.55465,4.55465c-5.31376,4.55465 -6.07287,11.38664 -2.27733,16.7004c7.59109,12.14575 17.45951,23.53238 28.84615,32.64169c11.38664,9.86842 25.0506,17.45951 39.47367,22.77327l1.51822,0.75911c2.27733,0.75911 4.55465,1.51822 6.83198,1.51822c4.55465,0 9.10931,-1.51822 12.14575,-4.55465c3.79555,-4.55465 8.3502,-9.10931 11.38664,-13.66396l2.27733,-3.03644c0.75911,-0.75911 1.51822,-1.51822 2.27733,-1.51822c0.75911,0 1.51822,0 2.27733,0.75911c3.79555,1.51822 24.29149,10.62753 32.64169,14.42307l3.03644,1.51822l3.79555,1.51822c0,6.07287 -0.75911,12.14575 -3.03644,17.45951c-3.03644,8.3502 -16.7004,15.94129 -28.08704,18.21862c-2.27733,0.75911 -4.55465,0.75911 -8.3502,0.75911c-7.59109,0 -20.49595,-2.27733 -47.06476,-12.14575c-28.08704,-10.62753 -56.93318,-34.15991 -79.70646,-65.28338l-1.51822,-1.51822c-6.83198,-9.10931 -18.21862,-25.80971 -18.21862,-43.26922c-0.75911,-12.90485 5.31376,-25.0506 15.18218,-34.15991c3.03644,-2.27733 7.59109,-3.79555 11.38664,-3.79555c0,0 0.75911,0 0.75911,0c2.27733,0 3.79555,0 5.31376,0c0,-0.75911 0.75911,-0.75911 1.51822,-0.75911m0,-7.59109c-0.75911,0 -0.75911,0 -1.51822,0l-4.55465,0c-0.75911,0 -0.75911,0 -1.51822,0c-6.07287,0 -11.38664,2.27733 -15.94129,5.31376c0,0 0,0 0,0c-12.14575,9.86842 -18.21862,25.0506 -18.21862,39.47367c0,18.97773 12.90485,37.95546 20.49595,47.82387l1.51822,1.51822c23.53238,31.88258 53.13764,56.17407 82.74289,67.56071c22.77327,9.10931 38.71456,12.90485 49.34209,12.90485c4.55465,0 7.59109,-0.75911 9.86842,-0.75911c12.90485,-2.27733 29.60526,-11.38664 33.4008,-22.77327c2.27733,-6.07287 3.79555,-13.66396 3.79555,-20.49595c0,-3.03644 -2.27733,-5.31376 -4.55465,-6.83198l-3.79555,-1.51822l-3.03644,-1.51822c-6.83198,-3.03644 -28.84615,-13.66396 -33.4008,-15.18218c-0.75911,0 -2.27733,-0.75911 -4.55465,-0.75911c-5.31376,0 -7.59109,3.79555 -8.3502,4.55465l-2.27733,3.03644c-3.79555,4.55465 -6.83198,9.10931 -10.62753,12.90485c-1.51822,1.51822 -3.79555,2.27733 -6.83198,2.27733c-1.51822,0 -3.03644,0 -3.79555,-0.75911l-1.51822,-0.75911c-13.66396,-5.31376 -26.56882,-12.14575 -37.19635,-22.01416c-10.62753,-9.10931 -19.73684,-19.73684 -27.32793,-31.12347c-1.51822,-2.27733 -0.75911,-5.31376 0.75911,-6.83198c0,0 0.75911,-0.75911 0.75911,-0.75911c1.51822,-1.51822 3.03644,-3.03644 3.79555,-4.55465l0.75911,-0.75911c0.75911,-0.75911 1.51822,-1.51822 2.27733,-2.27733l0,0c2.27733,-2.27733 3.79555,-4.55465 5.31376,-6.83198c1.51822,-2.27733 2.27733,-6.07287 -0.75911,-10.62753c-0.75911,-1.51822 -4.55465,-9.86842 -9.10931,-19.73684l-1.51822,-3.79555l-4.55465,-9.86842c-0.75911,-2.27733 -2.27733,-4.55465 -3.79555,-6.07287c-1.51822,-1.51822 -3.03644,-2.27733 -4.55465,-2.27733c-0.75911,1.51822 -1.51822,1.51822 -1.51822,1.51822l0,0z" fill="#472b29"/>
   </g>
  </g>
  <g transform="rotate(-0.0289436 583.529 491.373)" stroke="null">
   <path stroke="null" d="m384.12211,385.09507l398.81462,0l0,212.55495l-398.81462,0l0,-212.55495z"/>
   <path stroke="null" fill="#fff" d="m384.12211,385.09507l398.81462,0l0,141.7033l-398.81462,0l0,-141.7033z"/>
   <path stroke="null" fill="#ce1126" d="m384.12211,385.09507l398.81462,0l0,70.85165l-398.81462,0l0,-70.85165z"/>
   <path stroke="null" fill="#007a3d" d="m495.46494,517.94191l21.59714,-53.13874l21.59714,53.13874l-56.54305,-32.84151l69.89005,0m76.39516,32.84151l21.59714,-53.13874l21.59714,53.13874l-56.54305,-32.84151l69.89005,0"/>
  </g>
 </g>
</svg>